<?xml version="1.0" encoding="utf-8"?>
<!-- Generator: Adobe Illustrator 24.1.2, SVG Export Plug-In . SVG Version: 6.00 Build 0)  -->
<svg version="1.1" id="Layer_1" xmlns="http://www.w3.org/2000/svg" xmlns:xlink="http://www.w3.org/1999/xlink" x="0px" y="0px"
	 viewBox="0 0 29.9 13.3" style="enable-background:new 0 0 29.9 13.3;" xml:space="preserve">
<style type="text/css">
	.st0{enable-background:new    ;}
</style>
<g class="st0">
	<path d="M2.5,7.1V9c0,0.4,0,0.6,0.1,0.8C2.7,9.9,3,9.9,3.3,9.9v0.5H0.5V9.9c0.3,0,0.5,0,0.6,0C1.3,9.8,1.4,9.5,1.4,9V5.1
		c0-0.4,0-0.7-0.1-0.8C1.1,4.2,0.9,4.2,0.5,4.2V3.7h2.8v0.5C3,4.2,2.7,4.2,2.6,4.3C2.5,4.5,2.5,4.7,2.5,5.1v1.4h0.3
		c0.4,0,0.6-0.1,0.8-0.4C3.6,6,3.7,5.7,3.7,5.3l0-0.6c0.1-0.7,0.4-1.1,1.1-1.1c0.3,0,0.5,0.1,0.7,0.3C5.7,4,5.7,4.2,5.7,4.5
		c0,0.5-0.2,0.7-0.6,0.7C4.8,5.2,4.6,5,4.6,4.5c0,0,0-0.1,0-0.1c0-0.1,0-0.1,0-0.1c0,0,0-0.1,0-0.1c-0.2,0-0.3,0.2-0.3,0.5
		c0,0,0,0.2,0,0.7c0,0.8-0.3,1.3-0.7,1.3v0c0,0,0-0.1,0.1-0.1c0.2,0,0.6,0.2,1.2,0.7C4.9,7.6,5,8,5.1,8.5l0.1,0.7
		c0,0.2,0.1,0.4,0.2,0.5c0.1,0.1,0.2,0.1,0.4,0.1H6v0.5c-0.2,0.1-0.6,0.2-1,0.2c-0.5,0-0.9-0.5-1-1.5L3.9,8.4
		c-0.1-0.5-0.2-0.8-0.4-1C3.3,7.2,3,7.1,2.5,7.1z"/>
	<path d="M8.2,4.4c0.1,0.3,0.2,0.6,0.2,0.8c0,0.4-0.2,0.5-0.6,0.5c-0.4,0-0.6-0.3-0.6-0.9c0-0.3,0.2-0.6,0.6-0.9
		c0.4-0.2,0.8-0.4,1.1-0.4c1,0,1.6,0.4,1.9,1.2c0.1,0.2,0.1,0.5,0.1,1.1v3.5c0,0.3,0.1,0.5,0.3,0.5c0.1,0,0.3,0,0.4-0.1v0.6
		c-0.3,0.1-0.5,0.2-0.8,0.2c-0.5,0-0.9-0.2-1-0.7c-0.3,0.5-0.8,0.7-1.4,0.7c-0.5,0-0.9-0.2-1.2-0.5C6.9,9.8,6.8,9.4,6.8,8.9
		c0-1,0.5-1.7,1.4-2.1c0.5-0.2,0.9-0.3,1.2-0.3h0.2c0.1,0,0.1,0,0.2,0V5.6c0-1-0.3-1.6-0.9-1.6C8.4,4,8.2,4.2,8.2,4.4z M9.8,9.1V7.1
		c0,0,0,0-0.1,0H9.5C9,7.1,8.7,7.2,8.4,7.5C8.1,7.8,8,8.2,8,8.7c0,0.8,0.3,1.2,0.9,1.2C9.3,9.8,9.6,9.6,9.8,9.1z"/>
	<path d="M12.4,4.2V3.7h2v0.5c0.3-0.4,0.6-0.6,1-0.6c0.9,0,1.6,0.3,2,1.1C17.9,5.3,18,6.1,18,7.1c0,1-0.2,1.9-0.7,2.6
		c-0.4,0.6-1,0.9-1.9,0.9c-0.4,0-0.8-0.2-1-0.5v1.8c0,0.4,0,0.7,0.1,0.8c0.1,0.1,0.3,0.2,0.7,0.2v0.5h-2.9v-0.5l0.4,0
		c0.3,0,0.5-0.3,0.5-1V5.1c0-0.4,0-0.7-0.1-0.8C13.1,4.2,12.8,4.2,12.4,4.2z M14.5,5.1v4c0,0.2,0.1,0.4,0.3,0.6s0.4,0.2,0.7,0.2
		c0.6,0,0.9-0.3,1-0.8c0.2-0.8,0.3-1.5,0.3-2c0-2-0.4-2.9-1.3-2.9c-0.3,0-0.5,0.1-0.7,0.3S14.5,4.9,14.5,5.1z"/>
	<path d="M22,5v4c0,0.4,0,0.6,0,0.6c0,0.2,0.1,0.3,0.3,0.3c0.1,0,0.2,0,0.5,0v0.5H20V9.9c0.3,0,0.5,0,0.6,0c0.2-0.1,0.3-0.4,0.3-0.9
		V4.7c0-0.3-0.1-0.5-0.2-0.5c-0.3,0-0.5,0.2-0.8,0.7c-0.2,0.4-0.4,0.8-0.4,1.1h-0.5L19,3.7h4.7L23.9,6h-0.5c0-0.3-0.1-0.6-0.3-1
		c-0.3-0.5-0.5-0.8-0.7-0.8C22.1,4.2,22,4.4,22,5z"/>
	<path d="M26.1,4.4c0.1,0.3,0.2,0.6,0.2,0.8c0,0.4-0.2,0.5-0.6,0.5c-0.4,0-0.6-0.3-0.6-0.9c0-0.3,0.2-0.6,0.6-0.9
		c0.4-0.2,0.8-0.4,1.1-0.4c1,0,1.6,0.4,1.9,1.2c0.1,0.2,0.1,0.5,0.1,1.1v3.5c0,0.3,0.1,0.5,0.3,0.5c0.1,0,0.3,0,0.4-0.1v0.6
		c-0.3,0.1-0.5,0.2-0.8,0.2c-0.5,0-0.9-0.2-1-0.7c-0.3,0.5-0.8,0.7-1.4,0.7c-0.5,0-0.9-0.2-1.2-0.5c-0.3-0.3-0.4-0.7-0.4-1.2
		c0-1,0.5-1.7,1.4-2.1c0.5-0.2,0.9-0.3,1.2-0.3h0.2c0.1,0,0.1,0,0.2,0V5.6c0-1-0.3-1.6-0.9-1.6C26.3,4,26.1,4.2,26.1,4.4z M27.7,9.1
		V7.1c0,0,0,0-0.1,0h-0.2c-0.5,0-0.8,0.1-1.1,0.4s-0.4,0.7-0.4,1.1c0,0.8,0.3,1.2,0.9,1.2C27.2,9.8,27.5,9.6,27.7,9.1z"/>
</g>
<polyline points="28.5,1.9 25.6,3.1 28.6,2.9 "/>
</svg>
