<svg xmlns="http://www.w3.org/2000/svg" viewBox="0 0 627.04 142.53"><defs><style>.a{fill:#26a9e0;}.a,.b,.c{stroke:#231f20;stroke-miterlimit:10;}.b,.c{fill:none;}.b{stroke-width:12.76px;}.c{stroke-width:8.5px;}.d{fill:#231f20;}</style></defs><line class="a" x1="71.49" x2="71.49" y2="142.53"/><line class="a" x1="134.39" y1="71.27" y2="71.27"/><path class="b" d="M105.82,117.52a55.67,55.67,0,1,1,1.55-91.24" transform="translate(-3.22 -0.05)"/><path class="c" d="M74.7,71h40.93l.08.34a41,41,0,1,1-41-41" transform="translate(-3.22 -0.05)"/><path class="d" d="M157.66,16.31V33.89h.6l6.6-17.58h8.64L164.2,35c4.14,1.56,5.51,5.34,6.66,10.26.89,3.9,1.56,7.74,2.76,11.46h-7.87a85.47,85.47,0,0,1-2.21-9.36c-1-4.74-2-7.8-5.28-7.8h-.6V56.75H150V16.31Z" transform="translate(-3.22 -0.05)"/><path class="d" d="M190.71,56.75l-.42-2.88h-.12a7.64,7.64,0,0,1-6.47,3.36c-4.45,0-7.74-3.72-7.74-8.94,0-7.68,6.78-10.86,13.43-10.92v-.66c0-2.28-1.38-4-4.14-4a11,11,0,0,0-6,1.68l-1.43-5.28a19.1,19.1,0,0,1,9.11-2.22c8.95,0,10.38,6.24,10.38,12.18V50a39.34,39.34,0,0,0,.48,6.72Zm-1.08-14.28c-2.63.06-6.23.9-6.23,5,0,2.94,1.61,4,2.81,4A3.42,3.42,0,0,0,189.46,49a5.12,5.12,0,0,0,.17-1.38Z" transform="translate(-3.22 -0.05)"/><path class="d" d="M220.17,15.23v11.7c7.62,1.2,11.58,6.72,11.58,15.24s-3.66,14-11.58,15.06v11h-6.78v-11c-7.92-1.08-11.51-6.36-11.51-15.06,0-8.46,3.89-13.92,11.51-15.18V15.23Zm-6.78,16.44c-3.84,1.62-4.56,6.48-4.56,10.32,0,4.56,1,9,4.56,10.38Zm6.78,20.76c3.6-1.5,4.62-5.82,4.62-10.44,0-3.78-.84-8.52-4.62-10.32Z" transform="translate(-3.22 -0.05)"/><path class="d" d="M242.79,44.87c.13,4.56,2.76,6.24,6.24,6.24a17.31,17.31,0,0,0,5.58-1l1.08,5.64a24.33,24.33,0,0,1-8.1,1.32c-8,0-12.35-5.28-12.35-14.46,0-9.84,5.1-15.72,11.75-15.72,6.3,0,10,5,10,13.86a20.85,20.85,0,0,1-.24,4.08Zm7-5.52c0-3.78-1-6.72-3.3-6.72-2.58,0-3.59,3.78-3.66,6.72Z" transform="translate(-3.22 -0.05)"/><path class="d" d="M283.59,27.41V51l2.7.12L286,64.85h-5.94l-.36-8.1H265.47l-.42,8.1h-5.88l-.3-13.74,2.4-.12a18.76,18.76,0,0,0,2.16-6,46.11,46.11,0,0,0,1-9.6v-8Zm-12.3,8.52a56.7,56.7,0,0,1-.72,8.94,22,22,0,0,1-1.8,5.94h7.08V33.47h-4.56Z" transform="translate(-3.22 -0.05)"/><path class="d" d="M289.83,36.71c0-3.54-.12-6.54-.24-9.3h6.84l.42,3.36H297a6.68,6.68,0,0,1,6.12-3.84c6.48,0,9.12,7,9.12,15.12,0,10.44-4.62,15.18-9.54,15.18a5.7,5.7,0,0,1-4.86-2.88h-.12V68.27h-7.86Zm7.86,9.3a6,6,0,0,0,.42,2.52c.6,1.8,1.62,2.28,2.52,2.28,2.76,0,3.72-4.08,3.72-8.7,0-5.58-1.32-8.58-3.66-8.58a3,3,0,0,0-2.64,2.52,4.85,4.85,0,0,0-.36,2.1Z" transform="translate(-3.22 -0.05)"/><path class="d" d="M329.85,56.75l-.42-2.88h-.12a7.66,7.66,0,0,1-6.48,3.36c-4.44,0-7.74-3.72-7.74-8.94,0-7.68,6.78-10.86,13.44-10.92v-.66c0-2.28-1.38-4-4.14-4a11,11,0,0,0-6,1.68L317,29.15a19.11,19.11,0,0,1,9.12-2.22c8.94,0,10.38,6.24,10.38,12.18V50a39.34,39.34,0,0,0,.48,6.72Zm-1.08-14.28c-2.64.06-6.24.9-6.24,5,0,2.94,1.62,4,2.82,4A3.41,3.41,0,0,0,328.59,49a5.11,5.11,0,0,0,.18-1.38Z" transform="translate(-3.22 -0.05)"/><path class="d" d="M359.25,27.41v11.7h.84l5.1-11.7h8.16L365.79,40c2.94,1,4.44,4.56,5.22,8.4a53.89,53.89,0,0,0,2.58,8.34h-7.86a32.42,32.42,0,0,1-2.1-7.14c-.72-2.94-1.92-5-3.84-5h-.54V56.75h-7.68V27.41Z" transform="translate(-3.22 -0.05)"/><path class="d" d="M390.39,56.75,390,53.87h-.12a7.66,7.66,0,0,1-6.48,3.36c-4.44,0-7.74-3.72-7.74-8.94,0-7.68,6.78-10.86,13.44-10.92v-.66c0-2.28-1.38-4-4.14-4a11,11,0,0,0-6,1.68l-1.44-5.28a19.11,19.11,0,0,1,9.12-2.22c8.94,0,10.38,6.24,10.38,12.18V50a39.34,39.34,0,0,0,.48,6.72Zm-1.08-14.28c-2.64.06-6.24.9-6.24,5,0,2.94,1.62,4,2.82,4A3.41,3.41,0,0,0,389.13,49a5.11,5.11,0,0,0,.18-1.38Z" transform="translate(-3.22 -0.05)"/><path class="d" d="M402.51,36.71c0-3.54-.12-6.54-.24-9.3h6.84l.42,3.36h.12a6.68,6.68,0,0,1,6.12-3.84c6.48,0,9.12,7,9.12,15.12,0,10.44-4.62,15.18-9.54,15.18a5.7,5.7,0,0,1-4.86-2.88h-.12V68.27h-7.86Zm7.86,9.3a6,6,0,0,0,.42,2.52c.6,1.8,1.62,2.28,2.52,2.28,2.76,0,3.72-4.08,3.72-8.7,0-5.58-1.32-8.58-3.66-8.58a3,3,0,0,0-2.64,2.52,4.85,4.85,0,0,0-.36,2.1Z" transform="translate(-3.22 -0.05)"/><path class="d" d="M447.69,27.41v6.36h-6.54v23h-7.92v-23h-6.54V27.41Z" transform="translate(-3.22 -0.05)"/><path class="d" d="M471.63,42c0,12.24-6.78,15.24-11.22,15.24-7,0-11.22-5.52-11.22-15.06,0-10.56,5.52-15.24,11.34-15.24C467.43,26.93,471.63,32.75,471.63,42ZM457,42c0,5,.78,9.24,3.6,9.24,2.52,0,3.18-4.92,3.18-9.24,0-4-.66-9.12-3.3-9.12C457.59,32.87,457,38,457,42Z" transform="translate(-3.22 -0.05)"/><path class="d" d="M492.33,27.41v6.48h-8.46V56.75h-7.8V27.41Z" transform="translate(-3.22 -0.05)"/><path class="d" d="M495.69,36.71c0-3.54-.12-6.54-.24-9.3h6.84l.42,3.36h.12A6.68,6.68,0,0,1,509,26.93c6.48,0,9.12,7,9.12,15.12,0,10.44-4.62,15.18-9.54,15.18a5.7,5.7,0,0,1-4.86-2.88h-.12V68.27h-7.86Zm7.86,9.3a6,6,0,0,0,.42,2.52c.6,1.8,1.62,2.28,2.52,2.28,2.76,0,3.72-4.08,3.72-8.7,0-5.58-1.32-8.58-3.66-8.58a3,3,0,0,0-2.64,2.52,4.85,4.85,0,0,0-.36,2.1Z" transform="translate(-3.22 -0.05)"/><path class="d" d="M535.71,56.75l-.42-2.88h-.12a7.66,7.66,0,0,1-6.48,3.36c-4.44,0-7.74-3.72-7.74-8.94,0-7.68,6.78-10.86,13.44-10.92v-.66c0-2.28-1.38-4-4.14-4a11,11,0,0,0-6,1.68l-1.44-5.28a19.11,19.11,0,0,1,9.12-2.22c8.94,0,10.38,6.24,10.38,12.18V50a39.34,39.34,0,0,0,.48,6.72Zm-1.08-14.28c-2.64.06-6.24.9-6.24,5,0,2.94,1.62,4,2.82,4A3.41,3.41,0,0,0,534.45,49a5.11,5.11,0,0,0,.18-1.38Z" transform="translate(-3.22 -0.05)"/><path class="d" d="M565.17,15.23v11.7c7.62,1.2,11.58,6.72,11.58,15.24s-3.66,14-11.58,15.06v11h-6.78v-11c-7.92-1.08-11.52-6.36-11.52-15.06,0-8.46,3.9-13.92,11.52-15.18V15.23Zm-6.78,16.44c-3.84,1.62-4.56,6.48-4.56,10.32,0,4.56,1,9,4.56,10.38Zm6.78,20.76c3.6-1.5,4.62-5.82,4.62-10.44,0-3.78-.84-8.52-4.62-10.32Z" transform="translate(-3.22 -0.05)"/><path class="d" d="M588.33,27.41v6.36c0,5.34-.3,10.5-.6,13.5h.18c1-3.06,2.28-6.36,3.24-8.7l4.44-11.16H603V56.75h-7.14V50.33c0-5.94.3-9.3.48-13.2h-.18a85,85,0,0,1-2.82,8.34c-.78,2-3.12,7.74-4.8,11.28h-7.32V27.41Z" transform="translate(-3.22 -0.05)"/><path class="d" d="M615.57,27.41v6.36c0,5.34-.3,10.5-.6,13.5h.18c1-3.06,2.28-6.36,3.24-8.7l4.44-11.16h7.44V56.75h-7.14V50.33c0-5.94.3-9.3.48-13.2h-.18a85,85,0,0,1-2.82,8.34c-.78,2-3.12,7.74-4.8,11.28h-7.32V27.41Z" transform="translate(-3.22 -0.05)"/><path class="d" d="M156.34,87.41v6.36c0,5.34-.3,10.5-.6,13.5h.18c1-3.06,2.28-6.36,3.24-8.7l4.44-11.16H171v29.34H163.9v-6.42c0-5.94.3-9.3.48-13.2h-.18a87.69,87.69,0,0,1-2.82,8.34c-.78,2-3.12,7.74-4.8,11.28h-7.32V87.41Z" transform="translate(-3.22 -0.05)"/><path class="d" d="M202.29,87.41v6.48h-8.45v22.86H186V87.41Z" transform="translate(-3.22 -0.05)"/><path class="d" d="M211.42,104.87c.12,4.56,2.75,6.24,6.23,6.24a17.26,17.26,0,0,0,5.58-1l1.08,5.64a24.33,24.33,0,0,1-8.1,1.32c-8,0-12.35-5.28-12.35-14.46,0-9.84,5.1-15.72,11.75-15.72,6.3,0,10,5,10,13.86a20.85,20.85,0,0,1-.24,4.08Zm7-5.52c0-3.78-1-6.72-3.3-6.72-2.58,0-3.59,3.78-3.66,6.72Z" transform="translate(-3.22 -0.05)"/><path class="d" d="M251.43,102c0,12.24-6.78,15.24-11.22,15.24-7,0-11.21-5.52-11.21-15.06,0-10.56,5.51-15.24,11.33-15.24C247.23,86.93,251.43,92.75,251.43,102Zm-14.64,0c0,5,.78,9.24,3.6,9.24,2.52,0,3.18-4.92,3.18-9.24,0-4-.66-9.12-3.3-9.12C237.39,92.87,236.79,98,236.79,102Z" transform="translate(-3.22 -0.05)"/><path class="d" d="M263,87.41v6.36c0,5.34-.3,10.5-.61,13.5h.19c1-3.06,2.27-6.36,3.23-8.7l4.44-11.16h7.44v29.34h-7.14v-6.42c0-5.94.3-9.3.48-13.2h-.18a85,85,0,0,1-2.82,8.34c-.78,2-3.11,7.74-4.79,11.28h-7.32V87.41Z" transform="translate(-3.22 -0.05)"/><path class="d" d="M291,87.41v11.1h6.18V87.41H305v29.34h-7.86V105.17H291v11.58h-7.86V87.41Z" transform="translate(-3.22 -0.05)"/><path class="d" d="M327.81,75.23v11.7c7.62,1.2,11.58,6.72,11.58,15.24s-3.66,14-11.58,15.06v11H321v-11c-7.92-1.08-11.52-6.36-11.52-15.06,0-8.46,3.9-13.92,11.52-15.18V75.23ZM321,91.67c-3.84,1.62-4.56,6.48-4.56,10.32,0,4.56,1,9,4.56,10.38Zm6.78,20.76c3.6-1.5,4.62-5.82,4.62-10.44,0-3.78-.84-8.52-4.62-10.32Z" transform="translate(-3.22 -0.05)"/><path class="d" d="M365.31,102c0,12.24-6.78,15.24-11.22,15.24-7,0-11.22-5.52-11.22-15.06,0-10.56,5.52-15.24,11.34-15.24C361.11,86.93,365.31,92.75,365.31,102Zm-14.64,0c0,5,.78,9.24,3.6,9.24,2.52,0,3.18-4.92,3.18-9.24,0-4-.66-9.12-3.3-9.12C351.27,92.87,350.67,98,350.67,102Z" transform="translate(-3.22 -0.05)"/><path class="d" d="M369.69,96.71c0-3.54-.12-6.54-.24-9.3h6.84l.42,3.36h.12A6.68,6.68,0,0,1,383,86.93c6.48,0,9.12,7,9.12,15.12,0,10.44-4.62,15.18-9.54,15.18a5.7,5.7,0,0,1-4.86-2.88h-.12v13.92h-7.86Zm7.86,9.3a6,6,0,0,0,.42,2.52c.6,1.8,1.62,2.28,2.52,2.28,2.76,0,3.72-4.08,3.72-8.7,0-5.58-1.32-8.58-3.66-8.58a3,3,0,0,0-2.64,2.52,4.85,4.85,0,0,0-.36,2.1Z" transform="translate(-3.22 -0.05)"/><path class="d" d="M397.65,87.41h9.78l2.16,9.36c.6,2.52,1.14,4.8,2,8.58h.18c.78-3.72,1.2-6.12,1.74-8.58l2-9.36h9.78l1.92,29.34h-7.32l-.36-10.26c-.06-2.76-.18-6.24-.3-12.42h-.12c-.48,2.52-1.44,7.62-2.46,12.12l-2.28,10.08H408l-2.34-10.2c-.72-3.3-1.74-9-2.4-12h-.12c-.06,6.06-.18,9.6-.24,12.48l-.3,10.2h-7.08Z" transform="translate(-3.22 -0.05)"/><path class="d" d="M445.05,116.75l-.42-2.88h-.12a7.66,7.66,0,0,1-6.48,3.36c-4.44,0-7.74-3.72-7.74-8.94,0-7.68,6.78-10.86,13.44-10.92v-.66c0-2.28-1.38-4-4.14-4a11,11,0,0,0-6,1.68l-1.44-5.28a19.11,19.11,0,0,1,9.12-2.22c8.94,0,10.38,6.24,10.38,12.18V110a39.34,39.34,0,0,0,.48,6.72ZM444,102.47c-2.64.06-6.24.9-6.24,5,0,2.94,1.62,4,2.82,4a3.41,3.41,0,0,0,3.24-2.52,5.11,5.11,0,0,0,.18-1.38Z" transform="translate(-3.22 -0.05)"/><path class="d" d="M475.47,87.41v6.36h-6.54v23H461v-23h-6.54V87.41Z" transform="translate(-3.22 -0.05)"/><path class="d" d="M485.91,87.41v6.36c0,5.34-.3,10.5-.6,13.5h.18c1-3.06,2.28-6.36,3.24-8.7l4.44-11.16h7.44v29.34h-7.14v-6.42c0-5.94.3-9.3.48-13.2h-.18a85,85,0,0,1-2.82,8.34c-.78,2-3.12,7.74-4.8,11.28h-7.32V87.41Z" transform="translate(-3.22 -0.05)"/><path class="d" d="M513.75,87.41v11.7h.84l5.1-11.7h8.16L520.29,100c2.94,1,4.44,4.56,5.22,8.4a53.89,53.89,0,0,0,2.58,8.34h-7.86a32.42,32.42,0,0,1-2.1-7.14c-.72-2.94-1.92-5-3.84-5h-.54v12.18h-7.68V87.41Z" transform="translate(-3.22 -0.05)"/><path class="d" d="M538.05,87.41v6.36c0,5.34-.3,10.5-.6,13.5h.18c1-3.06,2.28-6.36,3.24-8.7l4.44-11.16h7.44v29.34h-7.14v-6.42c0-5.94.3-9.3.48-13.2h-.18a85,85,0,0,1-2.82,8.34c-.78,2-3.12,7.74-4.8,11.28H531V87.41Z" transform="translate(-3.22 -0.05)"/></svg>